name C:\Users\u0101727\Documents\MyRepositories\upper-imu-dc\Results\main_mocap_tracking\Case_10\FLX01_orientations_groundFrame.mot
datacolumns 13
datarows 14
range 2.01000000 2.14000000
endheader 
time	radius_imu_[0][0]	radius_imu_[0][1]	radius_imu_[0][2]	radius_imu_[1][0]	radius_imu_[1][1]	radius_imu_[1][2]	radius_imu_[2][0]	radius_imu_[2][1]	radius_imu_[2][2]	radius_imu_x	radius_imu_y	radius_imu_z	
          2.01000000	          0.52054923	         -0.83560749	         -0.17546687	         -0.46883501	         -0.45148339	          0.75918146	         -0.71359809	         -0.31292632	         -0.62678137	         -2.26095418	         -0.17637998	          1.01366602	
          2.02000000	          0.52787828	         -0.82963355	         -0.18180400	         -0.46590827	         -0.46183973	          0.75474071	         -0.71012253	         -0.31370724	         -0.63032830	         -2.26661092	         -0.18282071	          1.00412746	
          2.03000000	          0.53547595	         -0.82355017	         -0.18716467	         -0.46437073	         -0.47221436	          0.74924857	         -0.70542564	         -0.31429080	         -0.63529203	         -2.27407320	         -0.18827501	          0.99427742	
          2.04000000	          0.54339149	         -0.81736168	         -0.19143032	         -0.46431030	         -0.48260765	          0.74263436	         -0.69938661	         -0.31465813	         -0.64175434	         -2.28345334	         -0.19261921	          0.98407913	
          2.05000000	          0.55159423	         -0.81108417	         -0.19464398	         -0.46555304	         -0.49299298	          0.73499543	         -0.69210127	         -0.31480214	         -0.64953479	         -2.29454733	         -0.19589447	          0.97357162	
          2.06000000	          0.55998320	         -0.80474292	         -0.19699657	         -0.46772067	         -0.50332493	          0.72656823	         -0.68385392	         -0.31472663	         -0.65824840	         -2.30689953	         -0.19829351	          0.96285865	
          2.07000000	          0.56841782	         -0.79836701	         -0.19877450	         -0.47033918	         -0.51355202	          0.71766662	         -0.67504240	         -0.31444306	         -0.66741541	         -2.31993008	         -0.20010731	          0.95207820	
          2.08000000	          0.57675512	         -0.79198339	         -0.20028939	         -0.47295434	         -0.52362927	          0.70860891	         -0.66608387	         -0.31396608	         -0.67657784	         -2.33307460	         -0.20165329	          0.94136675	
          2.09000000	          0.58487692	         -0.78561280	         -0.20182051	         -0.47520805	         -0.53352554	          0.69966264	         -0.65734032	         -0.31330980	         -0.68537630	         -2.34588010	         -0.20321633	          0.93083419	
          2.10000000	          0.59269653	         -0.77926905	         -0.20359416	         -0.47685083	         -0.54322361	          0.69102923	         -0.64909484	         -0.31248658	         -0.69356184	         -2.35802362	         -0.20502758	          0.92055827	
          2.11000000	          0.60014745	         -0.77296125	         -0.20580076	         -0.47770305	         -0.55271428	          0.68286654	         -0.64157839	         -0.31150896	         -0.70095601	         -2.36926585	         -0.20728191	          0.91059578	
          2.12000000	          0.60716894	         -0.76669656	         -0.20861991	         -0.47761204	         -0.56199011	          0.67531760	         -0.63500600	         -0.31039249	         -0.70740644	         -2.37939731	         -0.21016361	          0.90099638	
          2.13000000	          0.61370527	         -0.76048066	         -0.21221452	         -0.47645221	         -0.57104429	          0.66850707	         -0.62957059	         -0.30915624	         -0.71278559	         -2.38823937	         -0.21384054	          0.89180373	
          2.14000000	          0.61972511	         -0.75431473	         -0.21667968	         -0.47417822	         -0.57987623	          0.66249421	         -0.62537653	         -0.30781952	         -0.71704347	         -2.39571560	         -0.21841205	          0.88303844	
